<?xml version="1.0" encoding="utf-8"?>
<!-- Generator: Adobe Illustrator 25.4.1, SVG Export Plug-In . SVG Version: 6.00 Build 0)  -->
<svg version="1.1" id="Layer_1" xmlns="http://www.w3.org/2000/svg" xmlns:xlink="http://www.w3.org/1999/xlink" x="0px" y="0px"
	 viewBox="0 0 396.06 296.87" style="enable-background:new 0 0 396.06 296.87;" xml:space="preserve">
<style type="text/css">
	.st0{fill:#FFFFFF;}
</style>
<g>
	<path class="st0" d="M162.55,81L4.92,263.44c-7.3,8.45-6.37,21.22,2.08,28.52l0,0c8.45,7.3,21.22,6.37,28.52-2.08l157.63-182.44
		c7.3-8.45,6.37-21.22-2.08-28.52l0,0C182.61,71.62,169.85,72.55,162.55,81z"/>
</g>
<g>
	<path class="st0" d="M261.55,44L103.92,226.44c-7.3,8.45-6.37,21.22,2.08,28.52l0,0c8.45,7.3,21.22,6.37,28.52-2.08L292.14,70.43
		c7.3-8.45,6.37-21.22-2.08-28.52l0,0C281.61,34.62,268.85,35.55,261.55,44z"/>
</g>
<g>
	<path class="st0" d="M360.55,7L202.92,189.44c-7.3,8.45-6.37,21.22,2.08,28.52l0,0c8.45,7.3,21.22,6.37,28.52-2.08L391.14,33.43
		c7.3-8.45,6.37-21.22-2.08-28.52l0,0C380.61-2.38,367.85-1.45,360.55,7z"/>
</g>
<g>
	<path class="st0" d="M296.07,155.63l-93.15,107.81c-7.3,8.45-6.37,21.22,2.08,28.52l0,0c8.45,7.3,21.22,6.37,28.52-2.08
		l93.15-107.81c7.3-8.45,6.37-21.22-2.08-28.52l0,0C316.13,146.25,303.37,147.18,296.07,155.63z"/>
</g>
</svg>
